{"title":"Sudden Impact(1983)MPEG-4[DaScubaDude]","uid":14892252,"size":1313367143,"categoryP":"video","categoryS":"movies","magnet":"?xt=urn:btih:627d1dd6a4a66548eb350ea50f737f5d521e57c8&amp;dn=Sudden+Impact%281983%29MPEG-4%5BDaScubaDude%5D&amp;tr=udp%3A%2F%2Ftracker.leechers-paradise.org%3A6969&amp;tr=udp%3A%2F%2Fzer0day.ch%3A1337&amp;tr=udp%3A%2F%2Fopen.demonii.com%3A1337&amp;tr=udp%3A%2F%2Ftracker.coppersurfer.tk%3A6969&amp;tr=udp%3A%2F%2Fexodus.desync.com%3A6969","seeders":0,"leechers":0,"uploader":"dascuba","files":1,"time":1465767079,"description":"Sudden Impact (1983)\r\nR | 1h 57min | Action, Thriller | 9 December 1983 (USA)\r\nA rape victim is exacting revenge on her aggressors in a small town outside San Francisco. &quot;Dirty&quot; Harry Callahan, on suspension for angering his superiors (again), is assigned to the case.\r\nDirector: Clint Eastwood\r\nWriters: Harry Julian Fink (characters), Rita M. Fink (characters) (as R.M. Fink) | \r\nStars: Clint Eastwood, Sondra Locke, Pat Hingle |\r\n\r\nGeneral\r\nComplete name                            : SUDDEN_IMPACT_Title1.mp4\r\nFormat                                   : MPEG-4\r\nFormat profile                           : Base Media\r\nCodec ID                                 : isom (isom/iso2/avc1/mp41)\r\nFile size                                : 1.22 GiB\r\nDuration                                 : 1h 57mn\r\nOverall bit rate                         : 1 496 Kbps\r\nMovie name                               : SUDDEN_IMPACT\r\nGenre                                    : Thriller\r\nWriting application                      : Lavf54.6.100\r\n\r\nVideo\r\nID                                       : 1\r\nFormat                                   : AVC\r\nFormat/Info                              : Advanced Video Codec\r\nFormat profile                           :   \r\nFormat settings, CABAC                   : No\r\nFormat settings, ReFrames                : 6 frames\r\nFormat settings, GOP                     : M=1, N=60\r\nCodec ID                                 : avc1\r\nCodec ID/Info                            : Advanced Video Coding\r\nDuration                                 : 1h 57mn\r\nBit rate                                 : 1 215 Kbps\r\nWidth                                    : 720 pixels\r\nHeight                                   : 404 pixels\r\nDisplay aspect ratio                     : 16:9\r\nFrame rate mode                          : Constant\r\nFrame rate                               : 29.970 (30000/1001) fps\r\nColor space                              : YUV\r\nChroma subsampling                       : 4:2:0\r\nBit depth                                : 8 bits\r\nScan type                                : Progressive\r\nBits/(Pixel*Frame)                       : 0.139\r\nStream size                              : 1 017 MiB (81%)\r\n\r\nAudio\r\nID                                       : 2\r\nFormat                                   : AAC\r\nFormat/Info                              : Advanced Audio Codec\r\nFormat profile                           : LC\r\nCodec ID                                 : 40\r\nDuration                                 : 1h 57mn\r\nBit rate mode                            : Constant\r\nBit rate                                 : 275 Kbps\r\nChannel(s)                               : 2 channels\r\nChannel(s)_Original                      : 6 channels\r\nChannel positions                        : Front: L C R, Side: L R, LFE\r\nSampling rate                            : 44.1 KHz\r\nFrame rate                               : 43.066 fps (1024 spf)\r\nCompression mode                         : Lossy\r\nStream size                              : 230 MiB (18%)\r\nDefault                                  : Yes\r\nAlternate group                          : 1","torrent":{"xt":"urn:btih:627d1dd6a4a66548eb350ea50f737f5d521e57c8","amp;dn":"Sudden+Impact%281983%29MPEG-4%5BDaScubaDude%5D","amp;tr":["udp%3A%2F%2Ftracker.leechers-paradise.org%3A6969","udp%3A%2F%2Fzer0day.ch%3A1337","udp%3A%2F%2Fopen.demonii.com%3A1337","udp%3A%2F%2Ftracker.coppersurfer.tk%3A6969","udp%3A%2F%2Fexodus.desync.com%3A6969"],"infoHash":"627d1dd6a4a66548eb350ea50f737f5d521e57c8","infoHashBuffer":{"type":"Buffer","data":[98,125,29,214,164,166,101,72,235,53,14,165,15,115,127,93,82,30,87,200]},"announce":[],"urlList":[]}}